<?xml version="1.0" encoding="utf-8"?>
<!-- Generator: Adobe Illustrator 19.0.0, SVG Export Plug-In . SVG Version: 6.00 Build 0)  -->
<svg version="1.1" id="Layer_1" xmlns="http://www.w3.org/2000/svg" xmlns:xlink="http://www.w3.org/1999/xlink" x="0px" y="0px"
	 viewBox="0 0 98.1 17.1" style="enable-background:new 0 0 98.1 17.1;" xml:space="preserve">
<style type="text/css">
	.st0{fill:#C7E7F1;}
	.st1{fill:#EEF8FD;}
	.st2{fill:#8E2B27;}
	.st3{fill:#37C0D1;}
	.st4{fill:#EE3829;}
	.st5{fill:#EDF7FC;}
</style>
<g id="XMLID_119_">
	<path id="XMLID_126_" class="st0" d="M8.5,0C3.8,0,0,3.8,0,8.5c0,2.3,0.9,4.4,2.4,6L14.4,2.3C12.9,0.9,10.8,0,8.5,0z"/>
	<path id="XMLID_125_" class="st1" d="M14.4,2.3L2.4,14.5c1.5,1.6,3.7,2.6,6.1,2.6c4.7,0,8.5-3.8,8.5-8.5C17.1,6.1,16,3.9,14.4,2.3z
		"/>
	<g id="XMLID_14_">
		<polygon id="XMLID_124_" class="st2" points="6.5,6.5 11.7,5.1 10.3,10.4 		"/>
		<polygon id="XMLID_123_" class="st3" points="10.3,10.4 5.1,11.8 6.4,6.5 		"/>
		<polygon id="XMLID_16_" class="st4" points="11.7,5.1 8.3,8.4 10.3,10.4 		"/>
		<polygon id="XMLID_15_" class="st0" points="8.3,8.4 5.1,11.8 10.3,10.4 		"/>
	</g>
</g>
<g id="XMLID_30_">
	<path id="XMLID_32_" class="st5" d="M32.1,12.1v-8l-3.6,6.2H28l-3.6-6.2v8h-0.7V2.9h0.7l3.8,6.6l3.8-6.6h0.7v9.2H32.1z"/>
	<path id="XMLID_34_" class="st5" d="M36.5,12.2c-0.3,0-0.6-0.1-0.9-0.2c-0.3-0.1-0.5-0.3-0.7-0.4c-0.2-0.2-0.4-0.4-0.5-0.7
		c-0.1-0.3-0.2-0.5-0.2-0.8s0.1-0.6,0.2-0.8c0.1-0.2,0.3-0.5,0.6-0.6c0.2-0.2,0.5-0.3,0.9-0.4c0.3-0.1,0.7-0.1,1.1-0.1
		c0.4,0,0.7,0,1.1,0.1c0.4,0.1,0.7,0.2,1,0.3V7.8c0-0.6-0.2-1.1-0.5-1.5c-0.4-0.4-0.9-0.6-1.5-0.6c-0.3,0-0.7,0.1-1,0.2
		c-0.4,0.1-0.7,0.3-1.1,0.6l-0.2-0.4c0.9-0.6,1.7-0.9,2.5-0.9c0.8,0,1.5,0.2,1.9,0.7c0.5,0.5,0.7,1.1,0.7,2v3.3
		c0,0.2,0.1,0.3,0.3,0.3v0.6c0,0-0.1,0-0.1,0c0,0-0.1,0-0.1,0c-0.2,0-0.3-0.1-0.4-0.2s-0.2-0.3-0.2-0.4V11c-0.3,0.4-0.7,0.7-1.2,0.9
		C37.6,12.1,37.1,12.2,36.5,12.2z M36.7,11.7c0.5,0,1-0.1,1.4-0.3s0.7-0.4,1-0.8c0.1-0.2,0.2-0.4,0.2-0.5V9c-0.3-0.1-0.6-0.2-1-0.3
		c-0.3-0.1-0.7-0.1-1.1-0.1c-0.3,0-0.6,0-0.9,0.1C36,8.8,35.8,8.9,35.6,9s-0.4,0.3-0.5,0.5c-0.1,0.2-0.2,0.4-0.2,0.6
		c0,0.2,0,0.4,0.1,0.6c0.1,0.2,0.2,0.4,0.4,0.5s0.3,0.3,0.6,0.3C36.2,11.7,36.4,11.7,36.7,11.7z"/>
	<path id="XMLID_37_" class="st5" d="M45.2,12.2c-0.6,0-1.1-0.2-1.6-0.5c-0.5-0.3-0.8-0.7-1.1-1.1v4.2h-0.6V5.4h0.6v1.4
		c0.3-0.4,0.6-0.8,1.1-1.1C44,5.4,44.5,5.2,45,5.2c0.5,0,0.9,0.1,1.3,0.3c0.4,0.2,0.7,0.5,1,0.8C47.6,6.6,47.8,7,48,7.4
		c0.2,0.4,0.2,0.9,0.2,1.3c0,0.5-0.1,0.9-0.2,1.3c-0.1,0.4-0.4,0.8-0.6,1.1c-0.3,0.3-0.6,0.6-1,0.8C46,12.1,45.6,12.2,45.2,12.2z
		 M45,11.6c0.4,0,0.7-0.1,1.1-0.2c0.3-0.2,0.6-0.4,0.8-0.7c0.2-0.3,0.4-0.6,0.5-0.9c0.1-0.4,0.2-0.7,0.2-1.1c0-0.4-0.1-0.8-0.2-1.1
		C47.2,7.3,47,7,46.8,6.7c-0.2-0.3-0.5-0.5-0.9-0.6c-0.3-0.2-0.7-0.2-1.1-0.2c-0.2,0-0.5,0-0.7,0.1c-0.3,0.1-0.5,0.2-0.7,0.4
		S43,6.7,42.8,6.9c-0.2,0.2-0.3,0.4-0.3,0.7v2.2c0.1,0.3,0.3,0.5,0.4,0.7c0.2,0.2,0.4,0.4,0.6,0.6c0.2,0.2,0.4,0.3,0.7,0.4
		C44.5,11.6,44.7,11.6,45,11.6z"/>
	<path id="XMLID_40_" class="st5" d="M53.1,12.2c-0.6,0-1.1-0.2-1.6-0.5c-0.5-0.3-0.8-0.7-1.1-1.1v4.2h-0.6V5.4h0.6v1.4
		c0.3-0.4,0.6-0.8,1.1-1.1C52,5.4,52.4,5.2,53,5.2c0.5,0,0.9,0.1,1.3,0.3c0.4,0.2,0.7,0.5,1,0.8C55.6,6.6,55.8,7,56,7.4
		c0.2,0.4,0.2,0.9,0.2,1.3c0,0.5-0.1,0.9-0.2,1.3c-0.1,0.4-0.4,0.8-0.6,1.1c-0.3,0.3-0.6,0.6-1,0.8C54,12.1,53.6,12.2,53.1,12.2z
		 M52.9,11.6c0.4,0,0.7-0.1,1.1-0.2c0.3-0.2,0.6-0.4,0.8-0.7c0.2-0.3,0.4-0.6,0.5-0.9c0.1-0.4,0.2-0.7,0.2-1.1
		c0-0.4-0.1-0.8-0.2-1.1C55.2,7.3,55,7,54.7,6.7c-0.2-0.3-0.5-0.5-0.9-0.6c-0.3-0.2-0.7-0.2-1.1-0.2c-0.2,0-0.5,0-0.7,0.1
		c-0.3,0.1-0.5,0.2-0.7,0.4s-0.4,0.4-0.6,0.6c-0.2,0.2-0.3,0.4-0.3,0.7v2.2c0.1,0.3,0.3,0.5,0.4,0.7c0.2,0.2,0.4,0.4,0.6,0.6
		c0.2,0.2,0.4,0.3,0.7,0.4C52.4,11.6,52.7,11.6,52.9,11.6z"/>
	<path id="XMLID_43_" class="st5" d="M57.8,3.8V2.6h0.6v1.2H57.8z M57.8,12.1V5.4h0.6v6.8H57.8z"/>
	<path id="XMLID_46_" class="st5" d="M66,12.1h-0.6V8.3c0-0.9-0.1-1.5-0.4-1.9c-0.2-0.4-0.6-0.6-1.2-0.6c-0.3,0-0.6,0.1-0.9,0.2
		c-0.3,0.1-0.5,0.3-0.8,0.4c-0.2,0.2-0.5,0.4-0.6,0.7c-0.2,0.3-0.3,0.5-0.4,0.8v4.2h-0.6V5.4H61V7c0.1-0.3,0.3-0.5,0.5-0.7
		C61.8,6,62,5.9,62.3,5.7c0.3-0.2,0.5-0.3,0.8-0.4c0.3-0.1,0.6-0.1,0.9-0.1c0.7,0,1.3,0.3,1.6,0.8C65.8,6.5,66,7.3,66,8.2V12.1z"/>
	<path id="XMLID_48_" class="st5" d="M70.6,12.2c-0.5,0-0.9-0.1-1.3-0.3c-0.4-0.2-0.7-0.5-1-0.8c-0.3-0.3-0.5-0.7-0.7-1.1
		c-0.2-0.4-0.2-0.8-0.2-1.3c0-0.5,0.1-0.9,0.2-1.3s0.4-0.8,0.6-1.1c0.3-0.3,0.6-0.6,1-0.8c0.4-0.2,0.8-0.3,1.3-0.3
		c0.6,0,1.1,0.2,1.5,0.5c0.4,0.3,0.8,0.7,1.1,1.1V5.4h0.6v6.9c0,0.5-0.1,0.9-0.3,1.2c-0.2,0.3-0.4,0.6-0.7,0.9s-0.6,0.4-1,0.5
		S71.1,15,70.7,15c-0.4,0-0.7,0-1.1-0.1c-0.3-0.1-0.6-0.2-0.8-0.3c-0.2-0.1-0.5-0.3-0.6-0.5c-0.2-0.2-0.3-0.4-0.5-0.6l0.4-0.3
		c0.3,0.5,0.6,0.8,1.1,1c0.5,0.2,0.9,0.3,1.5,0.3c0.3,0,0.7,0,1-0.1c0.3-0.1,0.6-0.2,0.8-0.4c0.2-0.2,0.4-0.4,0.5-0.7s0.2-0.6,0.2-1
		v-1.5c-0.3,0.4-0.6,0.8-1.1,1.1C71.6,12.1,71.1,12.2,70.6,12.2z M70.8,11.6c0.3,0,0.6-0.1,0.8-0.2c0.3-0.1,0.5-0.2,0.7-0.4
		c0.2-0.2,0.4-0.4,0.5-0.6c0.1-0.2,0.2-0.4,0.3-0.6V7.6c-0.1-0.3-0.2-0.5-0.4-0.7s-0.4-0.4-0.6-0.6S71.7,6,71.5,6S71,5.8,70.7,5.8
		c-0.4,0-0.8,0.1-1.1,0.3c-0.3,0.2-0.6,0.4-0.8,0.7c-0.2,0.3-0.4,0.6-0.5,0.9c-0.1,0.4-0.2,0.7-0.2,1.1c0,0.4,0.1,0.8,0.2,1.1
		c0.1,0.3,0.3,0.7,0.6,0.9c0.2,0.3,0.5,0.5,0.9,0.6C70.1,11.6,70.4,11.6,70.8,11.6z"/>
	<path id="XMLID_51_" class="st5" d="M75.7,8.9V8.3h3.7v0.6H75.7z"/>
	<path id="XMLID_53_" class="st5" d="M81.4,2.6h0.7v8.1c0,0.2,0.1,0.4,0.2,0.6c0.1,0.1,0.3,0.2,0.6,0.2c0.1,0,0.2,0,0.3,0
		s0.3-0.1,0.4-0.1l0.1,0.5c-0.1,0.1-0.3,0.1-0.5,0.1s-0.4,0.1-0.6,0.1c-0.4,0-0.7-0.1-0.9-0.3s-0.3-0.5-0.3-0.9V2.6z"/>
	<path id="XMLID_55_" class="st5" d="M86.4,12.2c-0.3,0-0.6-0.1-0.9-0.2c-0.3-0.1-0.5-0.3-0.7-0.4c-0.2-0.2-0.4-0.4-0.5-0.7
		c-0.1-0.3-0.2-0.5-0.2-0.8s0.1-0.6,0.2-0.8c0.1-0.2,0.3-0.5,0.6-0.6c0.2-0.2,0.5-0.3,0.9-0.4c0.3-0.1,0.7-0.1,1.1-0.1
		c0.4,0,0.7,0,1.1,0.1c0.4,0.1,0.7,0.2,1,0.3V7.8c0-0.6-0.2-1.1-0.5-1.5c-0.4-0.4-0.9-0.6-1.5-0.6c-0.3,0-0.7,0.1-1,0.2
		c-0.4,0.1-0.7,0.3-1.1,0.6l-0.2-0.4c0.9-0.6,1.7-0.9,2.5-0.9c0.8,0,1.5,0.2,1.9,0.7c0.5,0.5,0.7,1.1,0.7,2v3.3
		c0,0.2,0.1,0.3,0.3,0.3v0.6c0,0-0.1,0-0.1,0c0,0-0.1,0-0.1,0c-0.2,0-0.3-0.1-0.4-0.2s-0.2-0.3-0.2-0.4V11c-0.3,0.4-0.7,0.7-1.2,0.9
		C87.5,12.1,86.9,12.2,86.4,12.2z M86.5,11.7c0.5,0,1-0.1,1.4-0.3s0.7-0.4,1-0.8c0.1-0.2,0.2-0.4,0.2-0.5V9c-0.3-0.1-0.6-0.2-1-0.3
		c-0.3-0.1-0.7-0.1-1.1-0.1c-0.3,0-0.6,0-0.9,0.1c-0.3,0.1-0.5,0.2-0.7,0.3S85,9.3,84.9,9.5c-0.1,0.2-0.2,0.4-0.2,0.6
		c0,0.2,0,0.4,0.1,0.6c0.1,0.2,0.2,0.4,0.4,0.5s0.3,0.3,0.6,0.3C86,11.7,86.3,11.7,86.5,11.7z"/>
	<path id="XMLID_58_" class="st5" d="M94.8,12.2c-0.5,0-1-0.1-1.5-0.4c-0.5-0.3-0.8-0.6-1.1-1.1v1.4h-0.6V2.6h0.6v4.2
		C92.7,6.4,93,6,93.5,5.7c0.4-0.3,0.9-0.4,1.5-0.4c0.5,0,0.9,0.1,1.3,0.3s0.7,0.5,1,0.8c0.3,0.3,0.5,0.7,0.6,1.1
		c0.1,0.4,0.2,0.8,0.2,1.3c0,0.5-0.1,0.9-0.2,1.3c-0.2,0.4-0.4,0.8-0.7,1.1c-0.3,0.3-0.6,0.6-1,0.8C95.7,12.1,95.3,12.2,94.8,12.2z
		 M94.7,11.6c0.4,0,0.8-0.1,1.1-0.2s0.6-0.4,0.9-0.7c0.2-0.3,0.4-0.6,0.6-0.9c0.1-0.3,0.2-0.7,0.2-1.1c0-0.4-0.1-0.7-0.2-1.1
		c-0.1-0.4-0.3-0.7-0.5-0.9s-0.5-0.5-0.8-0.7c-0.3-0.2-0.7-0.2-1-0.2c-0.3,0-0.6,0-0.8,0.1c-0.3,0.1-0.5,0.2-0.7,0.4
		c-0.2,0.2-0.4,0.4-0.6,0.6c-0.2,0.2-0.3,0.4-0.4,0.7v2.2c0,0.3,0.1,0.5,0.3,0.7s0.4,0.4,0.6,0.6c0.2,0.2,0.5,0.3,0.7,0.4
		C94.2,11.6,94.5,11.6,94.7,11.6z"/>
</g>
</svg>
